<?xml version="1.0" encoding="utf-8"?>
<!-- Uploaded to: SVG Repo, www.svgrepo.com, Generator: SVG Repo Mixer Tools -->
<svg width="800px" height="800px" viewBox="0 0 1024 1024" class="icon"  version="1.1" xmlns="http://www.w3.org/2000/svg"><path d="M993.763 493.538v35c0 13.331-6.04 26.664-18.135 37.137-140.149 121.422-280.35 242.795-420.49 364.219-11.813 10.237-25.813 15.501-42.454 15.501v-35c16.644 0 30.641-5.264 42.454-15.501C695.28 773.47 835.474 652.092 975.628 530.677c12.095-10.475 18.135-23.803 18.135-37.139z" fill="#60C3DA" /><path d="M30.239 528.367v-3.5-1.75-3.5-3.5-1.75-3.5-3.5-1.75-3.5-3.5-1.75-3.5c0 14.707 6.701 29.313 19.037 40.019 138.449 120.064 277.049 239.996 415.562 360.02 13.002 11.26 28.74 16.466 47.853 16.994v35c-19.108-0.528-34.851-5.734-47.853-16.994C326.325 808.382 187.725 688.45 49.276 568.386c-12.337-10.705-19.037-25.312-19.037-40.019z" fill="#60C3DA" /><path d="M510.786 76.601c16.263 0 32.546 5.362 44.946 16.097 139.949 121.188 279.9 242.376 419.818 363.586 24.241 20.995 24.295 53.413 0.079 74.396C835.48 652.101 695.28 773.478 555.141 894.898c-11.814 10.238-25.813 15.502-42.451 15.502-19.109-0.528-34.853-5.734-47.854-16.994C326.324 773.382 187.724 653.45 49.275 533.386c-19.581-16.987-24.96-43.81-11.895-65.251 3.919-6.438 8.669-11.829 14.465-16.849C189.954 331.734 328.024 212.152 466.107 92.567c12.296-10.64 28.478-15.966 44.679-15.966z" fill="#97D4E1" /><path d="M509.402 418.197c43.548 0.122 74.171 29.181 75.53 64.947-1.279 36.45-32.956 64.729-74.737 65.024-0.22 0.002-0.438 0.002-0.658 0.002-41.582-0.078-75.119-27.567-75.147-64.931l0.001-0.433c0.225-36.624 32.778-64.391 74.518-64.609h0.493z" fill="#BDE3F3" /><path d="M584.934 483.144v16.801c-1.279 36.448-32.955 64.729-74.737 65.022l-0.658 0.001v-16.8l0.658-0.001c41.782-0.294 73.456-28.573 74.737-65.023z" fill="#88BAC3" /><path d="M584.934 483.144v16.801a61.91 61.91 0 0 1-0.083 1.726v-16.8c0.037-0.574 0.062-1.149 0.083-1.727M584.851 484.87v16.8c-0.868 14.06-6.28 26.837-15.04 37.173v-16.8c8.758-10.335 14.17-23.113 15.04-37.173M569.811 522.044v16.8c-4.432 5.229-9.719 9.832-15.709 13.66v-16.801c5.99-3.828 11.277-8.431 15.709-13.659M554.102 535.703v16.801a76.543 76.543 0 0 1-14.813 7.316v-16.8c5.299-1.949 10.26-4.409 14.813-7.317M539.289 543.021v16.8c-5.502 2.021-11.367 3.489-17.524 4.328v-16.801c6.157-0.838 12.022-2.307 17.524-4.327" fill="#88BAC3" /><path d="M521.766 547.348v16.801a89.597 89.597 0 0 1-11.569 0.819c-0.22 0.002-0.438 0.002-0.658 0.002v-16.8c0.217 0 0.438 0 0.658-0.002a90.017 90.017 0 0 0 11.569-0.82" fill="#88BAC3" /><path d="M610.881 483.074c0.035 0.935 0.05 1.868 0.046 2.799-0.149 46.664-47.603 85.275-101.149 85.352-0.381 0-0.596 0-0.813-0.002-55.348-0.312-100.825-40.865-101.208-87.317l-0.001-0.566c-0.033-48.084 47.068-88.179 101.729-88.196 54.044 0.302 101.51 38.871 101.435 85.688a73.218 73.218 0 0 1-0.039 2.242z m-100.686 65.094c41.785-0.292 73.458-28.572 74.737-65.024-1.359-35.764-31.982-64.825-75.256-64.946h-0.769c-41.744 0.216-74.293 27.982-74.518 64.609l-0.001 0.433c0.029 37.363 33.566 64.853 74.955 64.932l0.852-0.004" fill="#63C5E8" /><path d="M610.927 485.662v17.01c-0.149 46.664-47.603 85.276-101.149 85.353l-0.813-0.001c-55.348-0.313-100.826-40.867-101.208-87.318v-16.8c0.382 46.452 45.858 87.006 101.208 87.317 0.217 0.002 0.435 0.002 0.813 0.002 53.547-0.076 100.999-38.688 101.149-85.352v-0.211z" fill="#88BAC3" /><path d="M610.927 485.662v17.01a67.328 67.328 0 0 1-0.137 4.129v-16.8c0.088-1.369 0.133-2.746 0.137-4.129v-0.21M610.79 490.001v16.8c-1.035 16.371-7.866 31.615-18.655 44.374v-16.8c10.789-12.759 17.62-28.003 18.655-44.374M592.135 534.375v16.8c-6.234 7.373-13.793 13.912-22.315 19.364v-16.8c8.523-5.451 16.079-11.991 22.315-19.364M569.818 553.739v16.8a110.185 110.185 0 0 1-21.328 10.555v-16.8a110.243 110.243 0 0 0 21.328-10.555M548.487 564.294v16.8a112.994 112.994 0 0 1-23.705 5.898v-16.8a112.917 112.917 0 0 0 23.705-5.898" fill="#88BAC3" /><path d="M524.783 570.192v16.8a112.447 112.447 0 0 1-15.005 1.031c-0.38 0-0.596 0-0.813-0.003-55.348-0.312-100.825-40.865-101.208-87.317v-16.8c0.38 46.452 45.858 87.006 101.208 87.317l0.813 0.001a111.27 111.27 0 0 0 15.005-1.029" fill="#88BAC3" /><path d="M702.951 482.524v16.8c-25.108 20.051-46.317 43.14-74.591 59.631-1.023 0.598-2.05 1.185-3.076 1.766-0.864 0.486-1.23 0.69-1.592 0.892-0.347 0.192-0.689 0.382-1.036 0.571-33.581 18.387-69.958 28.306-109.241 28.468a239.999 239.999 0 0 1-10.579-0.189c-53.434-2.122-99.519-19.939-138.024-52.142-14.172-11.855-27.94-24.075-41.882-36.133-0.524-0.443-0.958-0.961-1.381-1.388V484c0.424 0.428 0.857 0.943 1.381 1.389 13.941 12.057 27.71 24.276 41.882 36.13 38.506 32.203 84.591 50.021 138.024 52.144a246.309 246.309 0 0 0 9.595 0.192c0.328 0 0.656 0 0.984-0.004 39.285-0.161 75.66-10.08 109.241-28.468 0.347-0.188 0.689-0.378 1.036-0.571 0.36-0.2 0.728-0.403 1.592-0.892a258.181 258.181 0 0 0 3.076-1.765c28.274-16.489 49.483-39.58 74.591-59.631z" fill="#88BAC3" /><path d="M702.951 482.524v16.8c-23.211 18.536-43.09 39.67-68.3 55.785v-16.801c25.209-16.114 45.086-37.247 68.3-55.784M634.65 538.31v16.801a184.742 184.742 0 0 1-6.292 3.846 236.519 236.519 0 0 1-3.076 1.766c-0.864 0.486-1.23 0.69-1.591 0.892-0.348 0.192-0.689 0.382-1.037 0.571-10.459 5.729-21.191 10.635-32.197 14.678V560.06c11.006-4.044 21.738-8.948 32.197-14.677 0.348-0.188 0.689-0.378 1.037-0.571 0.359-0.2 0.727-0.403 1.591-0.892a236.442 236.442 0 0 0 3.076-1.765 179.35 179.35 0 0 0 6.292-3.845" fill="#88BAC3" /><path d="M590.457 560.06v16.802a223.337 223.337 0 0 1-46.908 11.695v-16.801a223.277 223.277 0 0 0 46.908-11.696M543.549 571.756v16.801a229.088 229.088 0 0 1-30.135 2.094l-0.984 0.003a246.375 246.375 0 0 1-9.596-0.193c-53.434-2.121-99.519-19.938-138.024-52.142-14.172-11.854-27.94-24.074-41.882-36.133-0.524-0.443-0.958-0.961-1.381-1.388v-16.8c0.424 0.428 0.857 0.943 1.381 1.389 13.941 12.057 27.71 24.275 41.882 36.13 38.506 32.203 84.592 50.021 138.024 52.143a249.63 249.63 0 0 0 9.596 0.193c0.328 0 0.656-0.003 0.984-0.004a228.917 228.917 0 0 0 30.135-2.093" fill="#88BAC3" /><path d="M734.188 477.016c4.313 3.738 4.313 6.792 0.011 10.512-20.291 17.536-40.38 35.258-60.933 52.56-37.337 31.436-81.962 49.933-133.782 54.865-10.139 0.964-20.161 1.456-30.06 1.456-44.684 0-86.818-10.052-125.497-32.222-13.476-7.726-25.955-17.005-37.759-26.626-19.333-15.773-37.75-32.403-56.548-48.676-4.054-3.51-4.063-6.731-0.021-10.221 21.693-18.699 42.953-37.808 65.215-55.983 35.865-29.28 78.695-46.267 127.664-51.374 10.06-1.047 20.211-1.352 25.906-1.72 69.068 0.376 124.52 19.815 170.331 59.457 18.49 15.996 36.986 31.978 55.473 47.972z m-105.83 65.139c28.272-16.489 49.481-39.579 74.591-59.63-1.059-1.014-1.611-1.608-2.237-2.141-13.407-11.609-26.804-23.229-40.26-34.804-14.385-12.379-30.573-22.654-48.284-31.219-0.346-0.165-0.69-0.331-1.036-0.495-30.119-14.353-63.903-21.439-97.665-21.496-43.214 0.059-85.587 11.232-120.593 33.043a193.02 193.02 0 0 0-4.582 2.941c-0.596 0.395-1.194 0.797-1.786 1.197-23.607 16.018-43.213 35.642-64.654 53.617-0.172 0.149-0.172 0.454-0.312 0.828 0.423 0.43 0.856 0.943 1.381 1.389 13.941 12.057 27.71 24.276 41.883 36.131 38.504 32.205 84.59 50.021 138.024 52.143a235.92 235.92 0 0 0 9.529 0.19c0.395 0.004 0.722 0 1.05 0 39.289-0.162 75.656-10.082 109.041-28.358 0.549-0.3 0.892-0.489 1.236-0.682 0.361-0.2 0.728-0.404 1.087-0.607 1.54-0.863 2.564-1.449 3.587-2.047" fill="#63C5E8" /><path d="M700.713 480.386c0.625 0.532 1.179 1.128 2.238 2.139-25.108 20.051-46.317 43.14-74.591 59.631-1.023 0.598-2.05 1.184-3.076 1.765-0.864 0.487-1.23 0.69-1.592 0.892-0.347 0.193-0.689 0.383-1.036 0.571-33.581 18.388-69.958 28.306-109.241 28.468a239.999 239.999 0 0 1-10.579-0.188c-53.434-2.122-99.519-19.939-138.024-52.144-14.172-11.854-27.94-24.073-41.882-36.13-0.524-0.444-0.958-0.961-1.381-1.389 0.142-0.375 0.142-0.681 0.313-0.829 21.439-17.975 41.047-37.599 64.653-53.617a201.218 201.218 0 0 1 5.362-3.509c0.332-0.212 0.67-0.422 1.006-0.631 35-21.808 77.383-32.981 119.838-33.043 34.517 0.056 68.301 7.143 98.42 21.496 0.347 0.164 0.69 0.33 1.036 0.495 17.711 8.564 33.899 18.84 48.283 31.217 13.45 11.577 26.847 23.194 40.253 34.806z m-191.096 90.839c53.707-0.077 101.159-38.688 101.31-85.352 0.003-0.93-0.011-1.864-0.046-2.799 0.024-0.75 0.038-1.497 0.039-2.244 0.075-46.816-47.392-85.385-100.778-85.687-55.317 0.015-102.419 40.109-102.387 88.194l0.002 0.565c0.38 46.452 45.858 87.008 101.208 87.318 0.217 0.005 0.433 0.005 0.652 0.005" fill="#A6D8E6" /><path d="M737.425 482.281v16.8c0 1.695-1.075 3.387-3.227 5.245-20.291 17.537-40.38 35.26-60.933 52.562-37.337 31.436-81.962 49.934-133.782 54.865-10.139 0.964-20.161 1.456-30.06 1.456-44.684 0-86.818-10.052-125.497-32.221-13.476-7.727-25.955-17.005-37.759-26.626-19.333-15.774-37.75-32.403-56.548-48.677-2.03-1.758-3.045-3.443-3.045-5.127v-1.68-0.839-1.68-1.682-0.839-1.68-1.68-0.84-1.681-1.68-0.839-1.681c0 1.684 1.015 3.369 3.045 5.127 18.799 16.272 37.216 32.901 56.548 48.677 11.804 9.618 24.283 18.899 37.759 26.626 38.679 22.169 80.813 32.221 125.497 32.221 9.896 0 19.919-0.494 30.06-1.456 51.82-4.933 96.445-23.433 133.782-54.865 20.554-17.302 40.642-35.024 60.933-52.562 2.152-1.858 3.227-3.549 3.227-5.244z" fill="#88BAC3" /><path d="M737.425 482.281v16.8a3.3 3.3 0 0 1-0.009 0.263v-16.8c0.007-0.088 0.009-0.177 0.009-0.263" fill="#88BAC3" /><path d="M737.416 482.542v16.8c-0.07 1.1-0.596 2.2-1.572 3.354v-16.801c0.976-1.152 1.502-2.254 1.572-3.353M735.844 485.894v16.801c-0.451 0.531-1 1.074-1.646 1.631-20.291 17.537-40.38 35.26-60.934 52.562a237.02 237.02 0 0 1-25.042 18.443v-16.8a237.02 237.02 0 0 0 25.042-18.443c20.555-17.302 40.643-35.024 60.934-52.56a15.15 15.15 0 0 0 1.646-1.634" fill="#88BAC3" /><path d="M648.224 558.53v16.8a230.264 230.264 0 0 1-44.689 22.146v-16.8a230.263 230.263 0 0 0 44.689-22.146M603.533 580.679v16.801c-16.604 6.099-34.17 10.431-52.697 12.962v-16.801c18.527-2.533 36.094-6.864 52.697-12.962M550.836 593.64v16.801c-3.744 0.51-7.53 0.948-11.353 1.313-10.139 0.964-20.161 1.456-30.06 1.456-44.684 0-86.818-10.052-125.497-32.221-13.476-7.727-25.955-17.005-37.759-26.626-19.333-15.774-37.75-32.403-56.548-48.677-2.03-1.758-3.045-3.443-3.045-5.127v-16.8c0 1.684 1.015 3.369 3.045 5.127 18.799 16.272 37.216 32.901 56.548 48.676 11.804 9.619 24.283 18.9 37.759 26.627 38.679 22.169 80.813 32.221 125.497 32.221 9.896 0 19.919-0.494 30.06-1.456 3.823-0.366 7.609-0.804 11.353-1.314" fill="#88BAC3" /></svg>